{
  "source": "C:\\Users\\Peter\\Desktop\\stuff\\MIUN\\quantitative_research\\video_compression\\videos\\HEVC_CLASS_B\\Kimono_1920x1080_24.y4m",
  "output": "C:\\Users\\Peter\\Desktop\\stuff\\MIUN\\quantitative_research\\video_compression\\compressed_videos\\HEVC_CLASS_B\\h264\\3\\Kimono_1920x1080_24_h264.mp4",
  "codec": "h264",
  "ok": "Input #0, yuv4mpegpipe, from 'C:\\Users\\Peter\\Desktop\\stuff\\MIUN\\quantitative_research\\video_compression\\videos\\HEVC_CLASS_B\\Kimono_1920x1080_24.y4m':\n  Duration: 00:00:10.00, start: 0.000000, bitrate: 597198 kb/s\n  Stream #0:0: Video: rawvideo (I420 / 0x30323449), yuv420p(progressive), 1920x1080, 24 fps, 24 tbr, 24 tbn\n[out#0/mp4 @ 000002a0e5599880] Codec AVOption b:a (set bitrate (in bits/s)) has not been used for any stream. The most likely reason is either wrong type (e.g. a video option with no video streams) or that it is a private option of some decoder which was not actually used for any stream.\nStream mapping:\n  Stream #0:0 -> #0:0 (rawvideo (native) -> h264 (libx264))\nPress [q] to stop, [?] for help\n[libx264 @ 000002a0e559c8c0] using cpu capabilities: MMX2 SSE2Fast SSSE3 SSE4.2 AVX FMA3 BMI2 AVX2\n[libx264 @ 000002a0e559c8c0] profile High, level 5.0, 4:2:0, 8-bit\n[libx264 @ 000002a0e559c8c0] 264 - core 165 r3222 b35605a - H.264/MPEG-4 AVC codec - Copyleft 2003-2025 - http://www.videolan.org/x264.html - options: cabac=1 ref=5 deblock=1:0:0 analyse=0x3:0x113 me=hex subme=8 psy=1 psy_rd=1.00:0.00 mixed_ref=1 me_range=16 chroma_me=1 trellis=2 8x8dct=1 cqm=0 deadzone=21,11 fast_pskip=1 chroma_qp_offset=-2 threads=18 lookahead_threads=3 sliced_threads=0 nr=0 decimate=1 interlaced=0 bluray_compat=0 constrained_intra=0 bframes=3 b_pyramid=2 b_adapt=1 b_bias=0 direct=3 weightb=1 open_gop=0 weightp=2 keyint=250 keyint_min=24 scenecut=40 intra_refresh=0 rc_lookahead=50 rc=cbr mbtree=1 bitrate=3000 ratetol=1.0 qcomp=0.60 qpmin=0 qpmax=69 qpstep=4 vbv_maxrate=3000 vbv_bufsize=3000 nal_hrd=none filler=0 ip_ratio=1.40 aq=1:1.00\nOutput #0, mp4, to 'C:\\Users\\Peter\\Desktop\\stuff\\MIUN\\quantitative_research\\video_compression\\compressed_videos\\HEVC_CLASS_B\\h264\\3\\Kimono_1920x1080_24_h264.mp4':\n  Metadata:\n    encoder         : Lavf62.3.100\n  Stream #0:0: Video: h264 (avc1 / 0x31637661), yuv420p(tv, progressive), 1920x1080, q=2-31, 3000 kb/s, 24 fps, 12288 tbn\n    Metadata:\n      encoder         : Lavc62.11.100 libx264\n    Side data:\n      cpb: bitrate max/min/avg: 3000000/0/3000000 buffer size: 3000000 vbv_delay: N/A\nframe=    0 fps=0.0 q=0.0 size=       0KiB time=N/A bitrate=N/A speed=N/A elapsed=0:00:00.54    \nframe=    0 fps=0.0 q=0.0 size=       0KiB time=N/A bitrate=N/A speed=N/A elapsed=0:00:01.17    \nframe=    1 fps=0.6 q=38.0 size=       0KiB time=N/A bitrate=N/A speed=N/A elapsed=0:00:01.74    \nframe=    9 fps=3.7 q=35.0 size=       0KiB time=00:00:00.12 bitrate=   3.1kbits/s speed=0.0519x elapsed=0:00:02.41    \nframe=   23 fps=7.4 q=34.0 size=     256KiB time=00:00:00.79 bitrate=2649.5kbits/s speed=0.256x elapsed=0:00:03.09    \nframe=   33 fps=8.9 q=34.0 size=     256KiB time=00:00:01.25 bitrate=1678.0kbits/s speed=0.338x elapsed=0:00:03.70    \nframe=   41 fps=9.4 q=34.0 size=     256KiB time=00:00:01.62 bitrate=1290.8kbits/s speed=0.374x elapsed=0:00:04.34    \nframe=   57 fps= 12 q=34.0 size=     512KiB time=00:00:02.16 bitrate=1936.0kbits/s speed=0.44x elapsed=0:00:04.92    \nframe=   69 fps= 12 q=34.0 size=     768KiB time=00:00:02.79 bitrate=2253.8kbits/s speed=0.505x elapsed=0:00:05.53    \nframe=   74 fps= 12 q=34.0 size=     768KiB time=00:00:02.95 bitrate=2126.8kbits/s speed=0.483x elapsed=0:00:06.12    \nframe=   89 fps= 13 q=34.0 size=    1024KiB time=00:00:03.45 bitrate=2425.7kbits/s speed=0.514x elapsed=0:00:06.73    \nframe=  105 fps= 14 q=34.0 size=    1024KiB time=00:00:03.95 bitrate=2119.3kbits/s speed=0.539x elapsed=0:00:07.34    \nframe=  116 fps= 14 q=34.0 size=    1280KiB time=00:00:04.45 bitrate=2352.0kbits/s speed=0.548x elapsed=0:00:08.13    \nframe=  125 fps= 14 q=34.0 size=    1280KiB time=00:00:05.12 bitrate=2046.1kbits/s speed=0.581x elapsed=0:00:08.81    \nframe=  130 fps= 14 q=34.0 size=    1536KiB time=00:00:05.33 bitrate=2359.4kbits/s speed=0.57x elapsed=0:00:09.36    \nframe=  149 fps= 15 q=31.0 size=    1792KiB time=00:00:06.00 bitrate=2446.7kbits/s speed=0.606x elapsed=0:00:09.90    \nframe=  165 fps= 16 q=31.0 size=    1792KiB time=00:00:06.50 bitrate=2258.5kbits/s speed=0.617x elapsed=0:00:10.54    \nframe=  185 fps= 16 q=30.0 size=    2048KiB time=00:00:07.45 bitrate=2249.5kbits/s speed=0.661x elapsed=0:00:11.28    \nframe=  199 fps= 17 q=30.0 size=    2304KiB time=00:00:08.12 bitrate=2323.0kbits/s speed=0.681x elapsed=0:00:11.92    \nframe=  214 fps= 17 q=28.0 size=    2304KiB time=00:00:08.45 bitrate=2231.5kbits/s speed=0.67x elapsed=0:00:12.62    \nframe=  221 fps= 17 q=28.0 size=    2304KiB time=00:00:09.12 bitrate=2068.5kbits/s speed=0.687x elapsed=0:00:13.28    \nframe=  239 fps= 17 q=-1.0 size=    2560KiB time=00:00:09.62 bitrate=2178.9kbits/s speed=0.693x elapsed=0:00:13.88    \n[mp4 @ 000002a0e5599980] Starting second pass: moving the moov atom to the beginning of the file\n[out#0/mp4 @ 000002a0e5599880] video:2736KiB audio:0KiB subtitle:0KiB other streams:0KiB global headers:0KiB muxing overhead: 0.134216%\nframe=  240 fps= 17 q=-1.0 Lsize=    2739KiB time=00:00:09.91 bitrate=2263.0kbits/s speed=0.705x elapsed=0:00:14.05    \n[libx264 @ 000002a0e559c8c0] frame I:2     Avg QP:28.80  size: 93156\n[libx264 @ 000002a0e559c8c0] frame P:60    Avg QP:30.87  size: 25390\n[libx264 @ 000002a0e559c8c0] frame B:178   Avg QP:34.77  size:  6129\n[libx264 @ 000002a0e559c8c0] consecutive B-frames:  0.8%  0.0%  2.5% 96.7%\n[libx264 @ 000002a0e559c8c0] mb I  I16..4: 18.1% 74.7%  7.2%\n[libx264 @ 000002a0e559c8c0] mb P  I16..4:  0.4%  3.9%  0.1%  P16..4: 44.7% 12.2%  6.0%  0.0%  0.0%    skip:32.7%\n[libx264 @ 000002a0e559c8c0] mb B  I16..4:  0.0%  0.1%  0.0%  B16..8: 46.0%  2.6%  0.3%  direct: 0.6%  skip:50.4%  L0:41.5% L1:57.1% BI: 1.4%\n[libx264 @ 000002a0e559c8c0] 8x8 transform intra:83.1% inter:86.3%\n[libx264 @ 000002a0e559c8c0] direct mvs  spatial:94.4% temporal:5.6%\n[libx264 @ 000002a0e559c8c0] coded y,uvDC,uvAC intra: 64.1% 53.4% 16.2% inter: 7.2% 5.7% 0.2%\n[libx264 @ 000002a0e559c8c0] i16 v,h,dc,p: 26% 29%  5% 41%\n[libx264 @ 000002a0e559c8c0] i8 v,h,dc,ddl,ddr,vr,hd,vl,hu:  6%  4%  3% 12% 18% 14% 17% 12% 14%\n[libx264 @ 000002a0e559c8c0] i4 v,h,dc,ddl,ddr,vr,hd,vl,hu:  6%  4%  2% 12% 19% 13% 18% 10% 17%\n[libx264 @ 000002a0e559c8c0] i8c dc,h,v,p: 51% 26% 13% 11%\n[libx264 @ 000002a0e559c8c0] Weighted P-Frames: Y:0.0% UV:0.0%\n[libx264 @ 000002a0e559c8c0] ref P L0: 60.2% 17.7% 14.2%  4.3%  3.7%\n[libx264 @ 000002a0e559c8c0] ref B L0: 92.3%  5.7%  1.5%  0.5%\n[libx264 @ 000002a0e559c8c0] ref B L1: 98.3%  1.7%\n[libx264 @ 000002a0e559c8c0] kb/s:2240.55\n",
  "seconds": 14.400650024414062,
  "probe_out": {}
}